<svg width="32" height="33" viewBox="0 0 32 33" fill="none" xmlns="http://www.w3.org/2000/svg">
<g id="career-growth" clip-path="url(#clip0_1510_632)">
<path id="Vector" d="M7.99994 16.2253C12.4119 16.2253 15.9999 12.6372 15.9999 8.22525C15.9999 3.81325 12.4119 0.225248 7.99994 0.225248C3.58794 0.225248 -5.95769e-05 3.81325 -5.95769e-05 8.22525C-5.95769e-05 12.6372 3.58794 16.2253 7.99994 16.2253ZM7.99994 2.89192C10.9413 2.89192 13.3333 5.28392 13.3333 8.22525C13.3333 9.72792 12.7039 11.0826 11.6999 12.0519C11.1053 10.5919 9.67861 9.55858 8.00661 9.55858H7.99327C6.31994 9.55858 4.89194 10.5906 4.29727 12.0506C3.29594 11.0799 2.66661 9.72792 2.66661 8.22525C2.66661 5.28392 5.05861 2.89192 7.99994 2.89192ZM5.99994 6.22525C5.99994 5.12125 6.89594 4.22525 7.99994 4.22525C9.10394 4.22525 9.99994 5.12125 9.99994 6.22525C9.99994 7.32925 9.10394 8.22525 7.99994 8.22525C6.89594 8.22525 5.99994 7.32925 5.99994 6.22525ZM31.1506 9.39725C30.9919 9.45992 30.8279 9.48792 30.6666 9.48792C30.1333 9.48792 29.6293 9.16658 29.4239 8.63858L27.9386 4.83191C23.0626 15.1679 14.2399 22.1199 1.67994 25.5133C1.56394 25.5439 1.44661 25.5586 1.33194 25.5586C0.74394 25.5586 0.205274 25.1679 0.0452738 24.5732C-0.146726 23.8626 0.273274 23.1306 0.985274 22.9373C12.7973 19.7466 21.0613 13.2319 25.5853 3.56125L21.4893 5.15858C20.7999 5.42792 20.0293 5.08525 19.7626 4.40125C19.4946 3.71458 19.8346 2.94258 20.5199 2.67458L26.3879 0.385248C27.6639 -0.116085 29.1186 0.521248 29.6199 1.80125L31.9093 7.66925C32.1773 8.35592 31.8373 9.12792 31.1519 9.39592L31.1506 9.39725ZM30.6666 12.2252V30.8919C30.6666 31.6293 30.0693 32.2253 29.3333 32.2253C28.5973 32.2253 27.9999 31.6293 27.9999 30.8919V12.2252C27.9999 11.4879 28.5973 10.8919 29.3333 10.8919C30.0693 10.8919 30.6666 11.4879 30.6666 12.2252ZM23.9999 18.8919V30.8919C23.9999 31.6293 23.4026 32.2253 22.6666 32.2253C21.9306 32.2253 21.3333 31.6293 21.3333 30.8919V18.8919C21.3333 18.1546 21.9306 17.5586 22.6666 17.5586C23.4026 17.5586 23.9999 18.1546 23.9999 18.8919ZM17.3333 24.2253V30.8919C17.3333 31.6293 16.7359 32.2253 15.9999 32.2253C15.2639 32.2253 14.6666 31.6293 14.6666 30.8919V24.2253C14.6666 23.4879 15.2639 22.8919 15.9999 22.8919C16.7359 22.8919 17.3333 23.4879 17.3333 24.2253ZM10.6666 26.8919V30.8919C10.6666 31.6293 10.0693 32.2253 9.33327 32.2253C8.59727 32.2253 7.99994 31.6293 7.99994 30.8919V26.8919C7.99994 26.1546 8.59727 25.5586 9.33327 25.5586C10.0693 25.5586 10.6666 26.1546 10.6666 26.8919ZM3.99994 29.5586V30.8919C3.99994 31.6293 3.40261 32.2253 2.66661 32.2253C1.93061 32.2253 1.33327 31.6293 1.33327 30.8919V29.5586C1.33327 28.8213 1.93061 28.2253 2.66661 28.2253C3.40261 28.2253 3.99994 28.8213 3.99994 29.5586Z" fill="#F89E1B"/>
</g>
<defs>
<clipPath id="clip0_1510_632">
<rect width="32" height="32" fill="white" transform="translate(0 0.225342)"/>
</clipPath>
</defs>
</svg>
