<svg width="32" height="33" viewBox="0 0 32 33" fill="none" xmlns="http://www.w3.org/2000/svg">
<g id="network-analytic" clip-path="url(#clip0_1510_287)">
<path id="Vector" d="M19.9947 17.6093L23.016 17.316C23.712 19.0187 25.3827 20.224 27.3333 20.224C29.9067 20.224 32 18.1307 32 15.5573C32 12.984 29.9067 10.8907 27.3333 10.8907C25.0667 10.8907 23.176 12.516 22.7573 14.6627L19.48 14.98C19.1747 14.2547 18.732 13.6067 18.204 13.0387L20.656 9.33734C21.084 9.46801 21.5293 9.55868 22 9.55868C24.5733 9.55868 26.6667 7.46534 26.6667 4.89201C26.6667 2.31868 24.5733 0.225342 22 0.225342C19.4267 0.225342 17.3333 2.31868 17.3333 4.89201C17.3333 6.02668 17.7573 7.05468 18.432 7.86401L16.0387 11.4787C15.2093 11.108 14.2987 10.892 13.3333 10.892C12.368 10.892 11.4573 11.108 10.628 11.4787L8.23467 7.86401C8.91067 7.05468 9.33333 6.02668 9.33333 4.89201C9.33333 2.31868 7.24 0.225342 4.66667 0.225342C2.09333 0.225342 0 2.31868 0 4.89201C0 7.46534 2.09333 9.55868 4.66667 9.55868C5.13733 9.55868 5.58267 9.46801 6.01067 9.33734L8.46267 13.0387C7.35733 14.2293 6.66667 15.8093 6.66667 17.5587C6.66667 19.064 7.188 20.44 8.03333 21.5573L6.55067 23.296C5.97333 23.04 5.33867 22.892 4.668 22.892C2.09467 22.892 0.00133333 24.9853 0.00133333 27.5587C0.00133333 30.132 2.09467 32.2253 4.668 32.2253C7.24133 32.2253 9.33467 30.132 9.33467 27.5587C9.33467 26.6253 9.052 25.7587 8.57867 25.028L10.0373 23.3173C11.0133 23.8787 12.1293 24.2253 13.3347 24.2253C14.8093 24.2253 16.16 23.7293 17.2653 22.916L20.4213 25.648C20.1573 26.2333 20.0013 26.8773 20.0013 27.56C20.0013 30.1333 22.0947 32.2267 24.668 32.2267C27.2413 32.2267 29.3347 30.1333 29.3347 27.56C29.3347 24.9867 27.2413 22.8933 24.668 22.8933C23.7467 22.8933 22.892 23.1707 22.168 23.6333L19.0507 20.936C19.632 19.956 19.9867 18.828 19.996 17.612L19.9947 17.6093ZM27.3333 13.5587C28.436 13.5587 29.3333 14.456 29.3333 15.5587C29.3333 16.6613 28.436 17.5587 27.3333 17.5587C26.2307 17.5587 25.3333 16.6613 25.3333 15.5587C25.3333 14.456 26.2307 13.5587 27.3333 13.5587ZM22 2.89201C23.1027 2.89201 24 3.78934 24 4.89201C24 5.99468 23.1027 6.89201 22 6.89201C20.8973 6.89201 20 5.99468 20 4.89201C20 3.78934 20.8973 2.89201 22 2.89201ZM2.66667 4.89201C2.66667 3.78934 3.564 2.89201 4.66667 2.89201C5.76933 2.89201 6.66667 3.78934 6.66667 4.89201C6.66667 5.99468 5.76933 6.89201 4.66667 6.89201C3.564 6.89201 2.66667 5.99468 2.66667 4.89201ZM4.66667 29.5587C3.564 29.5587 2.66667 28.6613 2.66667 27.5587C2.66667 26.456 3.564 25.5587 4.66667 25.5587C5.76933 25.5587 6.66667 26.456 6.66667 27.5587C6.66667 28.6613 5.76933 29.5587 4.66667 29.5587ZM13.3333 21.5587C11.128 21.5587 9.33333 19.764 9.33333 17.5587C9.33333 15.3533 11.128 13.5587 13.3333 13.5587C15.5387 13.5587 17.3333 15.3533 17.3333 17.5587C17.3333 19.764 15.5387 21.5587 13.3333 21.5587ZM24.6667 25.5587C25.7693 25.5587 26.6667 26.456 26.6667 27.5587C26.6667 28.6613 25.7693 29.5587 24.6667 29.5587C23.564 29.5587 22.6667 28.6613 22.6667 27.5587C22.6667 26.456 23.564 25.5587 24.6667 25.5587Z" fill="#F89E1B"/>
</g>
<defs>
<clipPath id="clip0_1510_287">
<rect width="32" height="32" fill="white" transform="translate(0 0.225342)"/>
</clipPath>
</defs>
</svg>
