<svg width="32" height="33" viewBox="0 0 32 33" fill="none" xmlns="http://www.w3.org/2000/svg">
<g id="user-skill-gear" clip-path="url(#clip0_1510_275)">
<path id="Vector" d="M28.3976 18.7386L27.7963 18.3932C27.9323 17.6679 28.0003 16.9426 28.0003 16.2266C28.0003 15.5106 27.9323 14.7839 27.7963 14.0599L28.3976 13.7132C30.3096 12.6132 30.9709 10.1626 29.8709 8.25191C29.3389 7.32524 28.4776 6.66257 27.4456 6.38391C26.4149 6.10657 25.3363 6.24657 24.4096 6.77724L23.8096 7.12257C22.6883 6.16257 21.3963 5.4159 20.0003 4.92391V4.22791C20.0003 2.02257 18.2056 0.227905 16.0003 0.227905C13.7949 0.227905 12.0003 2.02257 12.0003 4.22791V4.92391C10.6043 5.41724 9.31227 6.16257 8.19094 7.12257L7.59094 6.77857C6.6656 6.24524 5.58694 6.10657 4.55494 6.38391C3.52294 6.66257 2.6616 7.32657 2.1296 8.25191C1.0296 10.1639 1.69094 12.6132 3.60294 13.7146L4.20427 14.0599C4.06827 14.7852 4.00027 15.5106 4.00027 16.2266C4.00027 16.9426 4.06827 17.6692 4.20427 18.3932L3.60294 18.7399C1.69094 19.8399 1.0296 22.2906 2.1296 24.2012C2.6616 25.1279 3.52294 25.7906 4.55494 26.0692C5.5856 26.3492 6.6656 26.2079 7.59094 25.6759L8.19094 25.3306C9.31227 26.2906 10.6043 27.0372 12.0003 27.5292V28.2252C12.0003 30.4306 13.7949 32.2252 16.0003 32.2252C18.2056 32.2252 20.0003 30.4306 20.0003 28.2252V27.5292C21.3963 27.0359 22.6883 26.2906 23.8096 25.3306L24.4096 25.6746C25.3363 26.2079 26.4149 26.3492 27.4456 26.0692C28.4776 25.7906 29.3389 25.1266 29.8709 24.2012C30.9709 22.2892 30.3096 19.8399 28.3976 18.7386ZM24.9896 13.7466C25.2176 14.5786 25.3336 15.4132 25.3336 16.2252C25.3336 17.0372 25.2176 17.8719 24.9896 18.7039C24.8283 19.2892 25.0843 19.9106 25.6109 20.2132L27.0683 21.0506C27.7056 21.4172 27.9269 22.2346 27.5589 22.8719C27.3816 23.1799 27.0949 23.4012 26.7509 23.4946C26.4083 23.5892 26.0483 23.5412 25.7389 23.3626L24.2843 22.5266C23.7563 22.2239 23.0909 22.3159 22.6669 22.7506C21.4816 23.9612 19.9843 24.8266 18.3336 25.2519C17.7443 25.4039 17.3336 25.9346 17.3336 26.5426V28.2252C17.3336 28.9599 16.7349 29.5586 16.0003 29.5586C15.2656 29.5586 14.6669 28.9599 14.6669 28.2252V26.5426C14.6669 25.9346 14.2549 25.4039 13.6669 25.2519C12.0176 24.8266 10.5189 23.9612 9.3336 22.7506C9.07627 22.4866 8.7296 22.3492 8.38027 22.3492C8.1536 22.3492 7.92427 22.4066 7.71627 22.5266L6.2616 23.3626C5.95227 23.5399 5.59094 23.5866 5.2496 23.4946C4.9056 23.4012 4.61894 23.1812 4.4416 22.8719C4.07494 22.2346 4.29627 21.4186 4.9336 21.0519L6.39094 20.2146C6.9176 19.9119 7.17227 19.2906 7.01227 18.7052C6.78427 17.8732 6.66827 17.0386 6.66827 16.2266C6.66827 15.4146 6.78427 14.5799 7.01227 13.7479C7.1736 13.1626 6.9176 12.5412 6.39094 12.2386L4.9336 11.4012C4.29627 11.0346 4.07494 10.2172 4.44294 9.57991C4.62027 9.27191 4.90694 9.05057 5.25094 8.95724C5.59494 8.86524 5.95494 8.91191 6.26294 9.08924L7.7176 9.92524C8.2456 10.2292 8.91094 10.1359 9.33494 9.70124C10.5203 8.49057 12.0176 7.62524 13.6683 7.19991C14.2576 7.04791 14.6683 6.51724 14.6683 5.90924V4.22657C14.6683 3.49191 15.2669 2.89324 16.0016 2.89324C16.7363 2.89324 17.3349 3.49191 17.3349 4.22657V5.90924C17.3349 6.51724 17.7469 7.04791 18.3349 7.19991C19.9843 7.62524 21.4829 8.49057 22.6683 9.70124C23.0936 10.1359 23.7576 10.2292 24.2856 9.92524L25.7403 9.08924C26.0483 8.91057 26.4069 8.86257 26.7523 8.95724C27.0963 9.05057 27.3829 9.27057 27.5603 9.57991C27.9269 10.2172 27.7056 11.0332 27.0683 11.3999L25.6109 12.2372C25.0843 12.5399 24.8296 13.1612 24.9896 13.7466ZM20.9936 19.7906C21.4843 20.3399 21.4376 21.1826 20.8896 21.6732C20.6349 21.9012 20.3176 22.0132 20.0003 22.0132C19.6336 22.0132 19.2696 21.8639 19.0056 21.5692C18.2403 20.7146 17.1443 20.2252 15.9989 20.2252C14.8536 20.2252 13.7576 20.7159 12.9923 21.5692C12.5016 22.1172 11.6589 22.1652 11.1096 21.6732C10.5603 21.1826 10.5149 20.3399 11.0056 19.7906C12.2749 18.3719 14.0949 17.5586 15.9989 17.5586C17.9029 17.5586 19.7243 18.3719 20.9936 19.7906ZM12.6669 12.8919C12.6669 11.0506 14.1589 9.55857 16.0003 9.55857C17.8416 9.55857 19.3336 11.0506 19.3336 12.8919C19.3336 14.7332 17.8416 16.2252 16.0003 16.2252C14.1589 16.2252 12.6669 14.7332 12.6669 12.8919Z" fill="#F89E1B"/>
</g>
<defs>
<clipPath id="clip0_1510_275">
<rect width="32" height="32" fill="white" transform="translate(0 0.225342)"/>
</clipPath>
</defs>
</svg>
